<svg xmlns="http://www.w3.org/2000/svg" xmlns:xlink="http://www.w3.org/1999/xlink" viewBox="0 0 135.75 42"><defs><style>.cls-1{fill:url(#名称未設定グラデーション_3);}.cls-2{fill:#231815;}</style><linearGradient id="名称未設定グラデーション_3" x1="84.68" y1="42" x2="84.68" gradientUnits="userSpaceOnUse"><stop offset="0" stop-color="#93c31e"/><stop offset="1" stop-color="#12b0c0" stop-opacity="0.9"/></linearGradient></defs><title>アセット 7</title><g id="レイヤー_2" data-name="レイヤー 2"><g id="レイヤー_1-2" data-name="レイヤー 1"><polygon class="cls-1" points="135.75 0 135.75 42 33.6 42 135.75 0"/><path class="cls-2" d="M7.89,11.39a6.14,6.14,0,0,1,6.53,6.48c0,3.59-2.28,6.42-6.59,6.42H4.51v5.77H0V11.39ZM4.5,20.88H6.32c2.17,0,3.52-.82,3.52-3a2.75,2.75,0,0,0-3-3H4.5Z"/><path class="cls-2" d="M24.05,30.27c-2.86,0-4.83-1.65-4.83-4.43s1.84-4.36,5.25-4.36h3.38V20.27a1.74,1.74,0,0,0-2-1.85,1.8,1.8,0,0,0-2,1.68H19.75c.08-2.38,1.55-4.86,6.18-4.86,3.5,0,6.24,1.47,6.24,5.08v9.74H28.05V28.31h-.19C27.37,29.32,26.19,30.27,24.05,30.27Zm3.8-5V23.86H25.63c-1.35,0-2.09.66-2.09,1.64a1.81,1.81,0,0,0,2,1.73A2.1,2.1,0,0,0,27.85,25.3Z"/><path class="cls-2" d="M47.72,29.56v-2h-.19a4.18,4.18,0,0,1-4.09,2.29c-3.25,0-5.4-2.36-5.4-6.91v-.72c0-4.52,2.14-6.9,5.4-6.9a4.2,4.2,0,0,1,4.12,2.38h.19V15.45H52.1V29.93c0,4.15-3.82,5.47-7.14,5.47-4.48,0-6.48-2.1-6.62-4.54h4.17c.24.92,1.21,1.47,2.53,1.47A2.46,2.46,0,0,0,47.72,29.56Zm-5.15-7.28v.82c0,2.33,1,3.59,2.6,3.59s2.55-1.26,2.55-3.59v-.82c0-2.33-1-3.59-2.55-3.59S42.57,19.92,42.57,22.28Z"/><path class="cls-2" d="M58.05,23.27V22.11c0-4.54,2.92-6.93,6.76-6.93,4.07,0,6.7,2.69,6.7,7v1.46H62.33v.5a2.67,2.67,0,0,0,2.66,3,2.22,2.22,0,0,0,2.44-1.72h4c-.22,2.3-2.1,4.95-6.44,4.95C60.87,30.33,58.05,27.92,58.05,23.27Zm9.26-2.14v0a2.53,2.53,0,0,0-2.46-2.8,2.57,2.57,0,0,0-2.52,2.8v0Z"/><path class="cls-2" d="M78.72,12.06H83v3.39h2.79v3.33H83v6.34c0,1.29.64,1.72,2,1.72l.86,0V30a12.17,12.17,0,0,1-1.92.13c-3.74,0-5.25-1.15-5.25-4.2V18.78H76.48V15.45h2.24Z"/><path class="cls-2" d="M105.09,22.22v1c0,4.42-2.5,7.16-6.93,7.16s-6.94-2.74-6.94-7.15v-.93c0-4.1,2.51-7.07,6.94-7.07S105.09,18.12,105.09,22.22Zm-9.43,0V23.3c0,1.89.63,3.75,2.5,3.75s2.49-1.85,2.49-3.75V22.18c0-2-.67-3.72-2.49-3.72S95.66,20.2,95.66,22.18Z"/><path class="cls-2" d="M115.63,27.85h-.19v7.06H111V15.45h4.36v2.23h.2a4.32,4.32,0,0,1,4.15-2.39c3.22,0,5.38,2.39,5.38,6.86v1.19c0,4.45-2.14,6.88-5.41,6.88A4.26,4.26,0,0,1,115.63,27.85Zm5-4.66v-.9c0-2.35-1-3.6-2.56-3.6s-2.62,1.29-2.62,3.6v.9c0,2.33,1.06,3.64,2.65,3.64S120.61,25.6,120.61,23.19Z"/></g></g></svg>