<svg xmlns="http://www.w3.org/2000/svg" xmlns:xlink="http://www.w3.org/1999/xlink" viewBox="0 0 135.28 41.98"><defs><style>.cls-1{fill:url(#名称未設定グラデーション_6);}.cls-2{fill:#231815;}</style><linearGradient id="名称未設定グラデーション_6" x1="67.64" y1="41.98" x2="67.64" gradientUnits="userSpaceOnUse"><stop offset="0" stop-color="#93c31e"/><stop offset="1" stop-color="#12b0c0"/></linearGradient></defs><title>アセット 6</title><g id="レイヤー_2" data-name="レイヤー 2"><g id="レイヤー_1-2" data-name="レイヤー 1"><polygon class="cls-1" points="67.64 0 0 41.98 135.28 41.98 67.64 0"/><path class="cls-2" d="M9.39,7.91a6.14,6.14,0,0,1,6.54,6.48c0,3.58-2.29,6.41-6.59,6.41H6v5.77H1.5V7.91ZM6,17.39H7.82c2.17,0,3.53-.82,3.53-3a2.76,2.76,0,0,0-3-3H6Z"/><path class="cls-2" d="M25.55,26.79c-2.86,0-4.83-1.66-4.83-4.43S22.57,18,26,18h3.38V16.78a1.74,1.74,0,0,0-2-1.85,1.82,1.82,0,0,0-2,1.69H21.26c.08-2.38,1.54-4.87,6.18-4.87,3.5,0,6.23,1.47,6.23,5.08v9.74H29.56V24.82h-.2C28.87,25.83,27.7,26.79,25.55,26.79Zm3.8-5V20.38H27.14C25.78,20.38,25,21,25,22a1.81,1.81,0,0,0,2,1.72A2.09,2.09,0,0,0,29.35,21.81Z"/><path class="cls-2" d="M49.23,26.08V24H49A4.18,4.18,0,0,1,45,26.34c-3.26,0-5.4-2.37-5.4-6.92v-.71c0-4.53,2.13-6.91,5.4-6.91a4.21,4.21,0,0,1,4.11,2.38h.19V12H53.6V26.45c0,4.14-3.81,5.46-7.14,5.46-4.48,0-6.48-2.1-6.61-4.53H44c.23.91,1.2,1.46,2.53,1.46A2.46,2.46,0,0,0,49.23,26.08Zm-5.16-7.29v.82c0,2.34,1,3.6,2.6,3.6s2.56-1.26,2.56-3.6v-.82c0-2.32-1-3.58-2.56-3.58S44.07,16.44,44.07,18.79Z"/><path class="cls-2" d="M59.56,19.79V18.63c0-4.54,2.91-6.94,6.75-6.94,4.08,0,6.7,2.7,6.7,7v1.47H63.84v.49a2.67,2.67,0,0,0,2.65,3,2.24,2.24,0,0,0,2.45-1.73h4c-.22,2.3-2.11,4.95-6.44,4.95C62.37,26.84,59.56,24.44,59.56,19.79Zm9.25-2.15h0a2.53,2.53,0,0,0-2.46-2.81,2.56,2.56,0,0,0-2.51,2.81h5Z"/><path class="cls-2" d="M80.23,8.58h4.22V12h2.79v3.32H84.45v6.34c0,1.29.64,1.73,2,1.73.34,0,.71,0,.86,0v3.16a14,14,0,0,1-1.91.12c-3.75,0-5.25-1.15-5.25-4.2V15.29H78V12h2.25Z"/><path class="cls-2" d="M106.6,18.73v.95c0,4.43-2.51,7.16-6.93,7.16s-7-2.73-7-7.15v-.93c0-4.1,2.52-7.07,7-7.07S106.6,14.63,106.6,18.73Zm-9.44,0v1.12c0,1.89.63,3.75,2.51,3.75s2.48-1.84,2.48-3.75V18.69c0-2-.67-3.72-2.48-3.72S97.16,16.71,97.16,18.69Z"/><path class="cls-2" d="M117.13,24.37h-.19v7.05h-4.4V12h4.36V14.2h.21a4.31,4.31,0,0,1,4.14-2.4c3.23,0,5.39,2.4,5.39,6.87v1.19c0,4.44-2.15,6.87-5.42,6.87A4.27,4.27,0,0,1,117.13,24.37Zm5-4.66V18.8c0-2.35-1-3.59-2.56-3.59s-2.62,1.28-2.62,3.59v.91c0,2.32,1.07,3.63,2.65,3.63S122.11,22.11,122.11,19.71Z"/></g></g></svg>