<svg xmlns="http://www.w3.org/2000/svg" xmlns:xlink="http://www.w3.org/1999/xlink" viewBox="0 0 97.25 79"><defs><style>.cls-1{fill:url(#名称未設定グラデーション_6);}</style><linearGradient id="名称未設定グラデーション_6" x1="48.62" y1="79" x2="48.62" gradientUnits="userSpaceOnUse"><stop offset="0" stop-color="#93c31e"/><stop offset="1" stop-color="#12b0c0"/></linearGradient></defs><title>アセット 2</title><g id="レイヤー_2" data-name="レイヤー 2"><g id="レイヤー_1-2" data-name="レイヤー 1"><path class="cls-1" d="M97.09,9.51l.12-.16a39.89,39.89,0,0,1-9,2.76c-.75.11-1.51.21-2.27.27a20.08,20.08,0,0,0,7.47-8.24,20.22,20.22,0,0,0,1.19-2.59l-.11.06a.94.94,0,0,1,.06-.15A40.17,40.17,0,0,1,81.86,6.3a19.93,19.93,0,0,0-34,17.82c0,.12,0,.24,0,.36A56.48,56.48,0,0,1,10.52,7.8,53,53,0,0,1,6.86,3.7l0,0-.07-.08a19.89,19.89,0,0,0,3.57,24.5,20.62,20.62,0,0,0,2.45,2.11,19.89,19.89,0,0,1-8.88-2.48,2.09,2.09,0,0,0,0,.25A19.9,19.9,0,0,0,15.54,46.1a20.51,20.51,0,0,0,4.19,1.52,19.88,19.88,0,0,1-5.08.67A20.19,20.19,0,0,1,11.33,48L11,47.9a.05.05,0,0,1,0,0H10.9A20,20,0,0,0,26.33,61.46a21.14,21.14,0,0,0,3.11.38A40,40,0,0,1,4.76,70.31c-1.3,0-2.57-.1-3.83-.22C.64,70,.34,70,.05,70a1,1,0,0,1,.17.1H0a56.53,56.53,0,0,0,30.57,9c20.27,0,35.43-9.3,45-22l.1-.12c.91-1.22,1.75-2.49,2.56-3.77.16-.26.34-.51.51-.78.74-1.22,1.41-2.48,2.06-3.75.16-.31.35-.62.5-.94.76-1.54,1.44-3.11,2-4.69l0-.06a57.61,57.61,0,0,0,4-20.59q0-1.29-.06-2.58a40.17,40.17,0,0,0,8.21-8c.61-.74,1.22-1.49,1.79-2.28Z"/></g></g></svg>