<svg xmlns="http://www.w3.org/2000/svg" viewBox="0 0 798.94 266.89"><title>アセット 1</title><g id="レイヤー_2" data-name="レイヤー 2"><g id="レイヤー_1-2" data-name="レイヤー 1"><rect width="37.83" height="183.5"/><rect x="60.71" y="83.39" width="37.83" height="183.5"/><rect x="120.93" width="37.83" height="183.5"/><rect x="180.88" width="37.83" height="91.75"/><polygon points="257.54 91.75 257.54 183.5 275.87 183.5 275.87 128.09 298.33 183.5 317.25 183.5 317.25 91.75 298.33 91.75 298.33 147.6 275.87 91.75 257.54 91.75"/><polygon points="336.76 91.75 375.78 91.75 375.78 107.99 356.27 107.99 356.27 126.91 372.24 126.91 372.24 145.83 356.27 145.83 356.27 165.34 375.78 165.34 375.78 183.5 336.76 183.5 336.76 91.75"/><polygon points="759.92 91.75 798.95 91.75 798.95 107.99 779.43 107.99 779.43 126.91 795.4 126.91 795.4 145.83 779.43 145.83 779.43 165.34 798.95 165.34 798.95 183.5 759.92 183.5 759.92 91.75"/><polygon points="395.29 91.75 416.58 91.75 425.44 117.45 434.9 91.75 456.19 91.75 436.09 137.62 456.19 183.5 436.09 183.5 425.74 156.47 416.58 183.5 395.29 183.5 414.87 137.34 395.29 91.75"/><polygon points="477.04 91.75 524.58 91.75 524.58 111.14 508.99 111.14 508.99 183.5 489.93 183.5 489.93 110.95 477.04 110.95 477.04 91.75"/><path d="M644,91.75H623.79L602.56,183.5h18.2l3.31-15.45,18.93,0,3.37,15.4h19.88Zm-17.52,64,7.33-38.25,7.5,38.25Z"/><path d="M720.4,149.37H709.31V133.31h31.77v17.63a41.88,41.88,0,0,1-3.83,17.77C733.36,177,725.7,186.15,710.81,186c-27.08-.22-35.18-27.76-34.75-48.42s6.17-47.72,32.5-47.94c0,0,23.14-2.56,28.25,21.53l-18.12,7.89s-.86-12.58-10.13-12.58-12.89,17.27-13.1,33.68,5.1,27.29,13.1,27.5S721,162,720.4,149.37Z"/><path d="M571.14,91.75H547.19V183.5H565.3V146h7.07a25.28,25.28,0,0,0,25.27-25.27v-2.52A26.5,26.5,0,0,0,571.14,91.75Zm8.59,27.68a12.68,12.68,0,0,1-12.65,12.65h-.84a.17.17,0,0,1-.17-.18V108.06a.17.17,0,0,1,.17-.18h2.43a11.06,11.06,0,0,1,11.06,11.06Z"/></g></g></svg>